<?xml version="1.0" encoding="utf-8" standalone="no"?>
<!DOCTYPE svg PUBLIC "-//W3C//DTD SVG 1.1//EN"
  "http://www.w3.org/Graphics/SVG/1.1/DTD/svg11.dtd">
<svg xmlns:xlink="http://www.w3.org/1999/xlink" width="399.127951pt" height="174.821937pt" viewBox="0 0 399.127951 174.821937" xmlns="http://www.w3.org/2000/svg" version="1.1">
 <metadata>
  <rdf:RDF xmlns:dc="http://purl.org/dc/elements/1.1/" xmlns:cc="http://creativecommons.org/ns#" xmlns:rdf="http://www.w3.org/1999/02/22-rdf-syntax-ns#">
   <cc:Work>
    <dc:type rdf:resource="http://purl.org/dc/dcmitype/StillImage"/>
    <dc:date>2026-09-27T23:23:55.342455</dc:date>
    <dc:format>image/svg+xml</dc:format>
    <dc:creator>
     <cc:Agent>
      <dc:title>Matplotlib v3.10.7+dfsg1, https://matplotlib.org/</dc:title>
     </cc:Agent>
    </dc:creator>
   </cc:Work>
  </rdf:RDF>
 </metadata>
 <defs>
  <style type="text/css">*{stroke-linejoin: round; stroke-linecap: butt}</style>
 </defs>
 <g id="figure_1">
  <g id="patch_1">
   <path d="M 0 174.821937 
L 399.127951 174.821937 
L 399.127951 0 
L 0 0 
z
" style="fill: #ffffff"/>
  </g>
  <g id="axes_1">
   <g id="patch_2">
    <path d="M 30.891406 140.256 
L 388.011406 140.256 
L 388.011406 7.2 
L 30.891406 7.2 
z
" style="fill: #ffffff"/>
   </g>
   <g id="patch_3">
    <path d="M 47.124134 140.256 
L 54.950248 140.256 
L 54.950248 7.2 
L 47.124134 7.2 
z
" clip-path="url(#pedd3933926)" style="fill: #ecebe6"/>
   </g>
   <g id="patch_4">
    <path d="M 171.473748 140.256 
L 321.018978 140.256 
L 321.018978 7.2 
L 171.473748 7.2 
z
" clip-path="url(#pedd3933926)" style="fill: #ecebe6"/>
   </g>
   <g id="patch_5">
    <path d="M 357.541232 140.256 
L 371.778679 140.256 
L 371.778679 7.2 
L 357.541232 7.2 
z
" clip-path="url(#pedd3933926)" style="fill: #ecebe6"/>
   </g>
   <g id="matplotlib.axis_1">
    <g id="xtick_1">
     <g id="line2d_1">
      <path d="M 47.124134 140.256 
L 47.124134 7.2 
" clip-path="url(#pedd3933926)" style="fill: none; stroke: #e4e3de; stroke-width: 0.6; stroke-linecap: square"/>
     </g>
     <g id="line2d_2">
      <defs>
       <path id="ma8efd19fb3" d="M 0 0 
L 0 3.5 
" style="stroke: #000000; stroke-width: 0.8"/>
      </defs>
      <g>
       <use xlink:href="#ma8efd19fb3" x="47.124134" y="140.256" style="stroke: #000000; stroke-width: 0.8"/>
      </g>
     </g>
     <g id="text_1">
      <!-- 0 -->
      <g transform="translate(44.874134 153.505375) scale(0.09 -0.09)">
       <defs>
        <path id="TimesNewRomanPSMT-30" d="M 231 2094 
Q 231 2819 450 3342 
Q 669 3866 1031 4122 
Q 1313 4325 1613 4325 
Q 2100 4325 2488 3828 
Q 2972 3213 2972 2159 
Q 2972 1422 2759 906 
Q 2547 391 2217 158 
Q 1888 -75 1581 -75 
Q 975 -75 572 641 
Q 231 1244 231 2094 
z
M 844 2016 
Q 844 1141 1059 588 
Q 1238 122 1591 122 
Q 1759 122 1940 273 
Q 2122 425 2216 781 
Q 2359 1319 2359 2297 
Q 2359 3022 2209 3506 
Q 2097 3866 1919 4016 
Q 1791 4119 1609 4119 
Q 1397 4119 1231 3928 
Q 1006 3669 925 3112 
Q 844 2556 844 2016 
z
" transform="scale(0.015625)"/>
       </defs>
       <use xlink:href="#TimesNewRomanPSMT-30"/>
      </g>
     </g>
    </g>
    <g id="xtick_2">
     <g id="line2d_3">
      <path d="M 89.380861 140.256 
L 89.380861 7.2 
" clip-path="url(#pedd3933926)" style="fill: none; stroke: #e4e3de; stroke-width: 0.6; stroke-linecap: square"/>
     </g>
     <g id="line2d_4">
      <g>
       <use xlink:href="#ma8efd19fb3" x="89.380861" y="140.256" style="stroke: #000000; stroke-width: 0.8"/>
      </g>
     </g>
     <g id="text_2">
      <!-- 25 -->
      <g transform="translate(84.880861 153.505375) scale(0.09 -0.09)">
       <defs>
        <path id="TimesNewRomanPSMT-32" d="M 2934 816 
L 2638 0 
L 138 0 
L 138 116 
Q 1241 1122 1691 1759 
Q 2141 2397 2141 2925 
Q 2141 3328 1894 3587 
Q 1647 3847 1303 3847 
Q 991 3847 742 3664 
Q 494 3481 375 3128 
L 259 3128 
Q 338 3706 661 4015 
Q 984 4325 1469 4325 
Q 1984 4325 2329 3994 
Q 2675 3663 2675 3213 
Q 2675 2891 2525 2569 
Q 2294 2063 1775 1497 
Q 997 647 803 472 
L 1909 472 
Q 2247 472 2383 497 
Q 2519 522 2628 598 
Q 2738 675 2819 816 
L 2934 816 
z
" transform="scale(0.015625)"/>
        <path id="TimesNewRomanPSMT-35" d="M 2778 4238 
L 2534 3706 
L 1259 3706 
L 981 3138 
Q 1809 3016 2294 2522 
Q 2709 2097 2709 1522 
Q 2709 1188 2573 903 
Q 2438 619 2231 419 
Q 2025 219 1772 97 
Q 1413 -75 1034 -75 
Q 653 -75 479 54 
Q 306 184 306 341 
Q 306 428 378 495 
Q 450 563 559 563 
Q 641 563 702 538 
Q 763 513 909 409 
Q 1144 247 1384 247 
Q 1750 247 2026 523 
Q 2303 800 2303 1197 
Q 2303 1581 2056 1914 
Q 1809 2247 1375 2428 
Q 1034 2569 447 2591 
L 1259 4238 
L 2778 4238 
z
" transform="scale(0.015625)"/>
       </defs>
       <use xlink:href="#TimesNewRomanPSMT-32"/>
       <use xlink:href="#TimesNewRomanPSMT-35" transform="translate(50 0)"/>
      </g>
     </g>
    </g>
    <g id="xtick_3">
     <g id="line2d_5">
      <path d="M 131.637588 140.256 
L 131.637588 7.2 
" clip-path="url(#pedd3933926)" style="fill: none; stroke: #e4e3de; stroke-width: 0.6; stroke-linecap: square"/>
     </g>
     <g id="line2d_6">
      <g>
       <use xlink:href="#ma8efd19fb3" x="131.637588" y="140.256" style="stroke: #000000; stroke-width: 0.8"/>
      </g>
     </g>
     <g id="text_3">
      <!-- 50 -->
      <g transform="translate(127.137588 153.505375) scale(0.09 -0.09)">
       <use xlink:href="#TimesNewRomanPSMT-35"/>
       <use xlink:href="#TimesNewRomanPSMT-30" transform="translate(50 0)"/>
      </g>
     </g>
    </g>
    <g id="xtick_4">
     <g id="line2d_7">
      <path d="M 173.894315 140.256 
L 173.894315 7.2 
" clip-path="url(#pedd3933926)" style="fill: none; stroke: #e4e3de; stroke-width: 0.6; stroke-linecap: square"/>
     </g>
     <g id="line2d_8">
      <g>
       <use xlink:href="#ma8efd19fb3" x="173.894315" y="140.256" style="stroke: #000000; stroke-width: 0.8"/>
      </g>
     </g>
     <g id="text_4">
      <!-- 75 -->
      <g transform="translate(169.394315 153.505375) scale(0.09 -0.09)">
       <defs>
        <path id="TimesNewRomanPSMT-37" d="M 644 4238 
L 2916 4238 
L 2916 4119 
L 1503 -88 
L 1153 -88 
L 2419 3728 
L 1253 3728 
Q 900 3728 750 3644 
Q 488 3500 328 3200 
L 238 3234 
L 644 4238 
z
" transform="scale(0.015625)"/>
       </defs>
       <use xlink:href="#TimesNewRomanPSMT-37"/>
       <use xlink:href="#TimesNewRomanPSMT-35" transform="translate(50 0)"/>
      </g>
     </g>
    </g>
    <g id="xtick_5">
     <g id="line2d_9">
      <path d="M 216.151042 140.256 
L 216.151042 7.2 
" clip-path="url(#pedd3933926)" style="fill: none; stroke: #e4e3de; stroke-width: 0.6; stroke-linecap: square"/>
     </g>
     <g id="line2d_10">
      <g>
       <use xlink:href="#ma8efd19fb3" x="216.151042" y="140.256" style="stroke: #000000; stroke-width: 0.8"/>
      </g>
     </g>
     <g id="text_5">
      <!-- 100 -->
      <g transform="translate(209.401042 153.505375) scale(0.09 -0.09)">
       <defs>
        <path id="TimesNewRomanPSMT-31" d="M 750 3822 
L 1781 4325 
L 1884 4325 
L 1884 747 
Q 1884 391 1914 303 
Q 1944 216 2037 169 
Q 2131 122 2419 116 
L 2419 0 
L 825 0 
L 825 116 
Q 1125 122 1212 167 
Q 1300 213 1334 289 
Q 1369 366 1369 747 
L 1369 3034 
Q 1369 3497 1338 3628 
Q 1316 3728 1258 3775 
Q 1200 3822 1119 3822 
Q 1003 3822 797 3725 
L 750 3822 
z
" transform="scale(0.015625)"/>
       </defs>
       <use xlink:href="#TimesNewRomanPSMT-31"/>
       <use xlink:href="#TimesNewRomanPSMT-30" transform="translate(50 0)"/>
       <use xlink:href="#TimesNewRomanPSMT-30" transform="translate(100 0)"/>
      </g>
     </g>
    </g>
    <g id="xtick_6">
     <g id="line2d_11">
      <path d="M 258.407769 140.256 
L 258.407769 7.2 
" clip-path="url(#pedd3933926)" style="fill: none; stroke: #e4e3de; stroke-width: 0.6; stroke-linecap: square"/>
     </g>
     <g id="line2d_12">
      <g>
       <use xlink:href="#ma8efd19fb3" x="258.407769" y="140.256" style="stroke: #000000; stroke-width: 0.8"/>
      </g>
     </g>
     <g id="text_6">
      <!-- 125 -->
      <g transform="translate(251.657769 153.505375) scale(0.09 -0.09)">
       <use xlink:href="#TimesNewRomanPSMT-31"/>
       <use xlink:href="#TimesNewRomanPSMT-32" transform="translate(50 0)"/>
       <use xlink:href="#TimesNewRomanPSMT-35" transform="translate(100 0)"/>
      </g>
     </g>
    </g>
    <g id="xtick_7">
     <g id="line2d_13">
      <path d="M 300.664496 140.256 
L 300.664496 7.2 
" clip-path="url(#pedd3933926)" style="fill: none; stroke: #e4e3de; stroke-width: 0.6; stroke-linecap: square"/>
     </g>
     <g id="line2d_14">
      <g>
       <use xlink:href="#ma8efd19fb3" x="300.664496" y="140.256" style="stroke: #000000; stroke-width: 0.8"/>
      </g>
     </g>
     <g id="text_7">
      <!-- 150 -->
      <g transform="translate(293.914496 153.505375) scale(0.09 -0.09)">
       <use xlink:href="#TimesNewRomanPSMT-31"/>
       <use xlink:href="#TimesNewRomanPSMT-35" transform="translate(50 0)"/>
       <use xlink:href="#TimesNewRomanPSMT-30" transform="translate(100 0)"/>
      </g>
     </g>
    </g>
    <g id="xtick_8">
     <g id="line2d_15">
      <path d="M 342.921224 140.256 
L 342.921224 7.2 
" clip-path="url(#pedd3933926)" style="fill: none; stroke: #e4e3de; stroke-width: 0.6; stroke-linecap: square"/>
     </g>
     <g id="line2d_16">
      <g>
       <use xlink:href="#ma8efd19fb3" x="342.921224" y="140.256" style="stroke: #000000; stroke-width: 0.8"/>
      </g>
     </g>
     <g id="text_8">
      <!-- 175 -->
      <g transform="translate(336.171224 153.505375) scale(0.09 -0.09)">
       <use xlink:href="#TimesNewRomanPSMT-31"/>
       <use xlink:href="#TimesNewRomanPSMT-37" transform="translate(50 0)"/>
       <use xlink:href="#TimesNewRomanPSMT-35" transform="translate(100 0)"/>
      </g>
     </g>
    </g>
    <g id="xtick_9">
     <g id="line2d_17">
      <path d="M 385.177951 140.256 
L 385.177951 7.2 
" clip-path="url(#pedd3933926)" style="fill: none; stroke: #e4e3de; stroke-width: 0.6; stroke-linecap: square"/>
     </g>
     <g id="line2d_18">
      <g>
       <use xlink:href="#ma8efd19fb3" x="385.177951" y="140.256" style="stroke: #000000; stroke-width: 0.8"/>
      </g>
     </g>
     <g id="text_9">
      <!-- 200 -->
      <g transform="translate(378.427951 153.505375) scale(0.09 -0.09)">
       <use xlink:href="#TimesNewRomanPSMT-32"/>
       <use xlink:href="#TimesNewRomanPSMT-30" transform="translate(50 0)"/>
       <use xlink:href="#TimesNewRomanPSMT-30" transform="translate(100 0)"/>
      </g>
     </g>
    </g>
    <g id="text_10">
     <!-- Distance along reference path [m]  (shaded = curve) -->
     <g transform="translate(115.707266 165.679906) scale(0.09 -0.09)">
      <defs>
       <path id="TimesNewRomanPSMT-44" d="M 109 0 
L 109 116 
L 269 116 
Q 538 116 650 288 
Q 719 391 719 750 
L 719 3488 
Q 719 3884 631 3984 
Q 509 4122 269 4122 
L 109 4122 
L 109 4238 
L 1834 4238 
Q 2784 4238 3279 4022 
Q 3775 3806 4076 3303 
Q 4378 2800 4378 2141 
Q 4378 1256 3841 663 
Q 3238 0 2003 0 
L 109 0 
z
M 1319 306 
Q 1716 219 1984 219 
Q 2709 219 3187 728 
Q 3666 1238 3666 2109 
Q 3666 2988 3187 3494 
Q 2709 4000 1959 4000 
Q 1678 4000 1319 3909 
L 1319 306 
z
" transform="scale(0.015625)"/>
       <path id="TimesNewRomanPSMT-69" d="M 928 4444 
Q 1059 4444 1151 4351 
Q 1244 4259 1244 4128 
Q 1244 3997 1151 3903 
Q 1059 3809 928 3809 
Q 797 3809 703 3903 
Q 609 3997 609 4128 
Q 609 4259 701 4351 
Q 794 4444 928 4444 
z
M 1188 2947 
L 1188 647 
Q 1188 378 1227 289 
Q 1266 200 1342 156 
Q 1419 113 1622 113 
L 1622 0 
L 231 0 
L 231 113 
Q 441 113 512 153 
Q 584 194 626 287 
Q 669 381 669 647 
L 669 1750 
Q 669 2216 641 2353 
Q 619 2453 572 2492 
Q 525 2531 444 2531 
Q 356 2531 231 2484 
L 188 2597 
L 1050 2947 
L 1188 2947 
z
" transform="scale(0.015625)"/>
       <path id="TimesNewRomanPSMT-73" d="M 2050 2947 
L 2050 1972 
L 1947 1972 
Q 1828 2431 1642 2597 
Q 1456 2763 1169 2763 
Q 950 2763 815 2647 
Q 681 2531 681 2391 
Q 681 2216 781 2091 
Q 878 1963 1175 1819 
L 1631 1597 
Q 2266 1288 2266 781 
Q 2266 391 1970 151 
Q 1675 -88 1309 -88 
Q 1047 -88 709 6 
Q 606 38 541 38 
Q 469 38 428 -44 
L 325 -44 
L 325 978 
L 428 978 
Q 516 541 762 319 
Q 1009 97 1316 97 
Q 1531 97 1667 223 
Q 1803 350 1803 528 
Q 1803 744 1651 891 
Q 1500 1038 1047 1263 
Q 594 1488 453 1669 
Q 313 1847 313 2119 
Q 313 2472 555 2709 
Q 797 2947 1181 2947 
Q 1350 2947 1591 2875 
Q 1750 2828 1803 2828 
Q 1853 2828 1881 2850 
Q 1909 2872 1947 2947 
L 2050 2947 
z
" transform="scale(0.015625)"/>
       <path id="TimesNewRomanPSMT-74" d="M 1031 3803 
L 1031 2863 
L 1700 2863 
L 1700 2644 
L 1031 2644 
L 1031 788 
Q 1031 509 1111 412 
Q 1191 316 1316 316 
Q 1419 316 1516 380 
Q 1613 444 1666 569 
L 1788 569 
Q 1678 263 1478 108 
Q 1278 -47 1066 -47 
Q 922 -47 784 33 
Q 647 113 581 261 
Q 516 409 516 719 
L 516 2644 
L 63 2644 
L 63 2747 
Q 234 2816 414 2980 
Q 594 3144 734 3369 
Q 806 3488 934 3803 
L 1031 3803 
z
" transform="scale(0.015625)"/>
       <path id="TimesNewRomanPSMT-61" d="M 1822 413 
Q 1381 72 1269 19 
Q 1100 -59 909 -59 
Q 613 -59 420 144 
Q 228 347 228 678 
Q 228 888 322 1041 
Q 450 1253 767 1440 
Q 1084 1628 1822 1897 
L 1822 2009 
Q 1822 2438 1686 2597 
Q 1550 2756 1291 2756 
Q 1094 2756 978 2650 
Q 859 2544 859 2406 
L 866 2225 
Q 866 2081 792 2003 
Q 719 1925 600 1925 
Q 484 1925 411 2006 
Q 338 2088 338 2228 
Q 338 2497 613 2722 
Q 888 2947 1384 2947 
Q 1766 2947 2009 2819 
Q 2194 2722 2281 2516 
Q 2338 2381 2338 1966 
L 2338 994 
Q 2338 584 2353 492 
Q 2369 400 2405 369 
Q 2441 338 2488 338 
Q 2538 338 2575 359 
Q 2641 400 2828 588 
L 2828 413 
Q 2478 -56 2159 -56 
Q 2006 -56 1915 50 
Q 1825 156 1822 413 
z
M 1822 616 
L 1822 1706 
Q 1350 1519 1213 1441 
Q 966 1303 859 1153 
Q 753 1003 753 825 
Q 753 600 887 451 
Q 1022 303 1197 303 
Q 1434 303 1822 616 
z
" transform="scale(0.015625)"/>
       <path id="TimesNewRomanPSMT-6e" d="M 1034 2341 
Q 1538 2947 1994 2947 
Q 2228 2947 2397 2830 
Q 2566 2713 2666 2444 
Q 2734 2256 2734 1869 
L 2734 647 
Q 2734 375 2778 278 
Q 2813 200 2889 156 
Q 2966 113 3172 113 
L 3172 0 
L 1756 0 
L 1756 113 
L 1816 113 
Q 2016 113 2095 173 
Q 2175 234 2206 353 
Q 2219 400 2219 647 
L 2219 1819 
Q 2219 2209 2117 2386 
Q 2016 2563 1775 2563 
Q 1403 2563 1034 2156 
L 1034 647 
Q 1034 356 1069 288 
Q 1113 197 1189 155 
Q 1266 113 1500 113 
L 1500 0 
L 84 0 
L 84 113 
L 147 113 
Q 366 113 442 223 
Q 519 334 519 647 
L 519 1709 
Q 519 2225 495 2337 
Q 472 2450 423 2490 
Q 375 2531 294 2531 
Q 206 2531 84 2484 
L 38 2597 
L 900 2947 
L 1034 2947 
L 1034 2341 
z
" transform="scale(0.015625)"/>
       <path id="TimesNewRomanPSMT-63" d="M 2631 1088 
Q 2516 522 2178 217 
Q 1841 -88 1431 -88 
Q 944 -88 581 321 
Q 219 731 219 1428 
Q 219 2103 620 2525 
Q 1022 2947 1584 2947 
Q 2006 2947 2278 2723 
Q 2550 2500 2550 2259 
Q 2550 2141 2473 2067 
Q 2397 1994 2259 1994 
Q 2075 1994 1981 2113 
Q 1928 2178 1911 2362 
Q 1894 2547 1784 2644 
Q 1675 2738 1481 2738 
Q 1169 2738 978 2506 
Q 725 2200 725 1697 
Q 725 1184 976 792 
Q 1228 400 1656 400 
Q 1963 400 2206 609 
Q 2378 753 2541 1131 
L 2631 1088 
z
" transform="scale(0.015625)"/>
       <path id="TimesNewRomanPSMT-65" d="M 681 1784 
Q 678 1147 991 784 
Q 1303 422 1725 422 
Q 2006 422 2214 576 
Q 2422 731 2563 1106 
L 2659 1044 
Q 2594 616 2278 264 
Q 1963 -88 1488 -88 
Q 972 -88 605 314 
Q 238 716 238 1394 
Q 238 2128 614 2539 
Q 991 2950 1559 2950 
Q 2041 2950 2350 2633 
Q 2659 2316 2659 1784 
L 681 1784 
z
M 681 1966 
L 2006 1966 
Q 1991 2241 1941 2353 
Q 1863 2528 1708 2628 
Q 1553 2728 1384 2728 
Q 1125 2728 920 2526 
Q 716 2325 681 1966 
z
" transform="scale(0.015625)"/>
       <path id="TimesNewRomanPSMT-20" transform="scale(0.015625)"/>
       <path id="TimesNewRomanPSMT-6c" d="M 1184 4444 
L 1184 647 
Q 1184 378 1223 290 
Q 1263 203 1344 158 
Q 1425 113 1647 113 
L 1647 0 
L 244 0 
L 244 113 
Q 441 113 512 153 
Q 584 194 625 287 
Q 666 381 666 647 
L 666 3247 
Q 666 3731 644 3842 
Q 622 3953 573 3993 
Q 525 4034 450 4034 
Q 369 4034 244 3984 
L 191 4094 
L 1044 4444 
L 1184 4444 
z
" transform="scale(0.015625)"/>
       <path id="TimesNewRomanPSMT-6f" d="M 1600 2947 
Q 2250 2947 2644 2453 
Q 2978 2031 2978 1484 
Q 2978 1100 2793 706 
Q 2609 313 2286 112 
Q 1963 -88 1566 -88 
Q 919 -88 538 428 
Q 216 863 216 1403 
Q 216 1797 411 2186 
Q 606 2575 925 2761 
Q 1244 2947 1600 2947 
z
M 1503 2744 
Q 1338 2744 1170 2645 
Q 1003 2547 900 2300 
Q 797 2053 797 1666 
Q 797 1041 1045 587 
Q 1294 134 1700 134 
Q 2003 134 2200 384 
Q 2397 634 2397 1244 
Q 2397 2006 2069 2444 
Q 1847 2744 1503 2744 
z
" transform="scale(0.015625)"/>
       <path id="TimesNewRomanPSMT-67" d="M 966 1044 
Q 703 1172 562 1401 
Q 422 1631 422 1909 
Q 422 2334 742 2640 
Q 1063 2947 1563 2947 
Q 1972 2947 2272 2747 
L 2878 2747 
Q 3013 2747 3034 2739 
Q 3056 2731 3066 2713 
Q 3084 2684 3084 2613 
Q 3084 2531 3069 2500 
Q 3059 2484 3036 2475 
Q 3013 2466 2878 2466 
L 2506 2466 
Q 2681 2241 2681 1891 
Q 2681 1491 2375 1206 
Q 2069 922 1553 922 
Q 1341 922 1119 984 
Q 981 866 932 777 
Q 884 688 884 625 
Q 884 572 936 522 
Q 988 472 1138 450 
Q 1225 438 1575 428 
Q 2219 413 2409 384 
Q 2700 344 2873 169 
Q 3047 -6 3047 -263 
Q 3047 -616 2716 -925 
Q 2228 -1381 1444 -1381 
Q 841 -1381 425 -1109 
Q 191 -953 191 -784 
Q 191 -709 225 -634 
Q 278 -519 444 -313 
Q 466 -284 763 25 
Q 600 122 533 198 
Q 466 275 466 372 
Q 466 481 555 628 
Q 644 775 966 1044 
z
M 1509 2797 
Q 1278 2797 1122 2612 
Q 966 2428 966 2047 
Q 966 1553 1178 1281 
Q 1341 1075 1591 1075 
Q 1828 1075 1981 1253 
Q 2134 1431 2134 1813 
Q 2134 2309 1919 2591 
Q 1759 2797 1509 2797 
z
M 934 0 
Q 788 -159 713 -296 
Q 638 -434 638 -550 
Q 638 -700 819 -813 
Q 1131 -1006 1722 -1006 
Q 2284 -1006 2551 -807 
Q 2819 -609 2819 -384 
Q 2819 -222 2659 -153 
Q 2497 -84 2016 -72 
Q 1313 -53 934 0 
z
" transform="scale(0.015625)"/>
       <path id="TimesNewRomanPSMT-72" d="M 1038 2947 
L 1038 2303 
Q 1397 2947 1775 2947 
Q 1947 2947 2059 2842 
Q 2172 2738 2172 2600 
Q 2172 2478 2090 2393 
Q 2009 2309 1897 2309 
Q 1788 2309 1652 2417 
Q 1516 2525 1450 2525 
Q 1394 2525 1328 2463 
Q 1188 2334 1038 2041 
L 1038 669 
Q 1038 431 1097 309 
Q 1138 225 1241 169 
Q 1344 113 1538 113 
L 1538 0 
L 72 0 
L 72 113 
Q 291 113 397 181 
Q 475 231 506 341 
Q 522 394 522 644 
L 522 1753 
Q 522 2253 501 2348 
Q 481 2444 426 2487 
Q 372 2531 291 2531 
Q 194 2531 72 2484 
L 41 2597 
L 906 2947 
L 1038 2947 
z
" transform="scale(0.015625)"/>
       <path id="TimesNewRomanPSMT-66" d="M 1319 2638 
L 1319 756 
Q 1319 356 1406 250 
Q 1522 113 1716 113 
L 1975 113 
L 1975 0 
L 266 0 
L 266 113 
L 394 113 
Q 519 113 622 175 
Q 725 238 764 344 
Q 803 450 803 756 
L 803 2638 
L 247 2638 
L 247 2863 
L 803 2863 
L 803 3050 
Q 803 3478 940 3775 
Q 1078 4072 1361 4255 
Q 1644 4438 1997 4438 
Q 2325 4438 2600 4225 
Q 2781 4084 2781 3909 
Q 2781 3816 2700 3733 
Q 2619 3650 2525 3650 
Q 2453 3650 2373 3701 
Q 2294 3753 2178 3923 
Q 2063 4094 1966 4153 
Q 1869 4213 1750 4213 
Q 1606 4213 1506 4136 
Q 1406 4059 1362 3898 
Q 1319 3738 1319 3069 
L 1319 2863 
L 2056 2863 
L 2056 2638 
L 1319 2638 
z
" transform="scale(0.015625)"/>
       <path id="TimesNewRomanPSMT-70" d="M -6 2578 
L 875 2934 
L 994 2934 
L 994 2266 
Q 1216 2644 1439 2795 
Q 1663 2947 1909 2947 
Q 2341 2947 2628 2609 
Q 2981 2197 2981 1534 
Q 2981 794 2556 309 
Q 2206 -88 1675 -88 
Q 1444 -88 1275 -22 
Q 1150 25 994 166 
L 994 -706 
Q 994 -1000 1030 -1079 
Q 1066 -1159 1155 -1206 
Q 1244 -1253 1478 -1253 
L 1478 -1369 
L -22 -1369 
L -22 -1253 
L 56 -1253 
Q 228 -1256 350 -1188 
Q 409 -1153 442 -1076 
Q 475 -1000 475 -688 
L 475 2019 
Q 475 2297 450 2372 
Q 425 2447 370 2484 
Q 316 2522 222 2522 
Q 147 2522 31 2478 
L -6 2578 
z
M 994 2081 
L 994 1013 
Q 994 666 1022 556 
Q 1066 375 1236 237 
Q 1406 100 1666 100 
Q 1978 100 2172 344 
Q 2425 663 2425 1241 
Q 2425 1897 2138 2250 
Q 1938 2494 1663 2494 
Q 1513 2494 1366 2419 
Q 1253 2363 994 2081 
z
" transform="scale(0.015625)"/>
       <path id="TimesNewRomanPSMT-68" d="M 1041 4444 
L 1041 2350 
Q 1388 2731 1591 2839 
Q 1794 2947 1997 2947 
Q 2241 2947 2416 2812 
Q 2591 2678 2675 2391 
Q 2734 2191 2734 1659 
L 2734 647 
Q 2734 375 2778 275 
Q 2809 200 2884 156 
Q 2959 113 3159 113 
L 3159 0 
L 1753 0 
L 1753 113 
L 1819 113 
Q 2019 113 2097 173 
Q 2175 234 2206 353 
Q 2216 403 2216 647 
L 2216 1659 
Q 2216 2128 2167 2275 
Q 2119 2422 2012 2495 
Q 1906 2569 1756 2569 
Q 1603 2569 1437 2487 
Q 1272 2406 1041 2159 
L 1041 647 
Q 1041 353 1073 281 
Q 1106 209 1195 161 
Q 1284 113 1503 113 
L 1503 0 
L 84 0 
L 84 113 
Q 275 113 384 172 
Q 447 203 484 290 
Q 522 378 522 647 
L 522 3238 
Q 522 3728 498 3840 
Q 475 3953 426 3993 
Q 378 4034 297 4034 
Q 231 4034 84 3984 
L 41 4094 
L 897 4444 
L 1041 4444 
z
" transform="scale(0.015625)"/>
       <path id="TimesNewRomanPSMT-5b" d="M 1900 -1269 
L 525 -1269 
L 525 4334 
L 1900 4334 
L 1900 4088 
L 994 4088 
L 994 -1025 
L 1900 -1025 
L 1900 -1269 
z
" transform="scale(0.015625)"/>
       <path id="TimesNewRomanPSMT-6d" d="M 1050 2338 
Q 1363 2650 1419 2697 
Q 1559 2816 1721 2881 
Q 1884 2947 2044 2947 
Q 2313 2947 2506 2790 
Q 2700 2634 2766 2338 
Q 3088 2713 3309 2830 
Q 3531 2947 3766 2947 
Q 3994 2947 4170 2830 
Q 4347 2713 4450 2447 
Q 4519 2266 4519 1878 
L 4519 647 
Q 4519 378 4559 278 
Q 4591 209 4675 161 
Q 4759 113 4950 113 
L 4950 0 
L 3538 0 
L 3538 113 
L 3597 113 
Q 3781 113 3884 184 
Q 3956 234 3988 344 
Q 4000 397 4000 647 
L 4000 1878 
Q 4000 2228 3916 2372 
Q 3794 2572 3525 2572 
Q 3359 2572 3192 2489 
Q 3025 2406 2788 2181 
L 2781 2147 
L 2788 2013 
L 2788 647 
Q 2788 353 2820 281 
Q 2853 209 2943 161 
Q 3034 113 3253 113 
L 3253 0 
L 1806 0 
L 1806 113 
Q 2044 113 2133 169 
Q 2222 225 2256 338 
Q 2272 391 2272 647 
L 2272 1878 
Q 2272 2228 2169 2381 
Q 2031 2581 1784 2581 
Q 1616 2581 1450 2491 
Q 1191 2353 1050 2181 
L 1050 647 
Q 1050 366 1089 281 
Q 1128 197 1204 155 
Q 1281 113 1516 113 
L 1516 0 
L 100 0 
L 100 113 
Q 297 113 375 155 
Q 453 197 493 289 
Q 534 381 534 647 
L 534 1741 
Q 534 2213 506 2350 
Q 484 2453 437 2492 
Q 391 2531 309 2531 
Q 222 2531 100 2484 
L 53 2597 
L 916 2947 
L 1050 2947 
L 1050 2338 
z
" transform="scale(0.015625)"/>
       <path id="TimesNewRomanPSMT-5d" d="M 234 4334 
L 1609 4334 
L 1609 -1272 
L 234 -1272 
L 234 -1025 
L 1141 -1025 
L 1141 4088 
L 234 4088 
L 234 4334 
z
" transform="scale(0.015625)"/>
       <path id="TimesNewRomanPSMT-28" d="M 1988 -1253 
L 1988 -1369 
Q 1516 -1131 1200 -813 
Q 750 -359 506 256 
Q 263 872 263 1534 
Q 263 2503 741 3301 
Q 1219 4100 1988 4444 
L 1988 4313 
Q 1603 4100 1356 3731 
Q 1109 3363 987 2797 
Q 866 2231 866 1616 
Q 866 947 969 400 
Q 1050 -31 1165 -292 
Q 1281 -553 1476 -793 
Q 1672 -1034 1988 -1253 
z
" transform="scale(0.015625)"/>
       <path id="TimesNewRomanPSMT-64" d="M 2222 322 
Q 2013 103 1813 7 
Q 1613 -88 1381 -88 
Q 913 -88 563 304 
Q 213 697 213 1313 
Q 213 1928 600 2439 
Q 988 2950 1597 2950 
Q 1975 2950 2222 2709 
L 2222 3238 
Q 2222 3728 2198 3840 
Q 2175 3953 2125 3993 
Q 2075 4034 2000 4034 
Q 1919 4034 1784 3984 
L 1744 4094 
L 2597 4444 
L 2738 4444 
L 2738 1134 
Q 2738 631 2761 520 
Q 2784 409 2836 365 
Q 2888 322 2956 322 
Q 3041 322 3181 375 
L 3216 266 
L 2366 -88 
L 2222 -88 
L 2222 322 
z
M 2222 541 
L 2222 2016 
Q 2203 2228 2109 2403 
Q 2016 2578 1861 2667 
Q 1706 2756 1559 2756 
Q 1284 2756 1069 2509 
Q 784 2184 784 1559 
Q 784 928 1059 592 
Q 1334 256 1672 256 
Q 1956 256 2222 541 
z
" transform="scale(0.015625)"/>
       <path id="TimesNewRomanPSMT-3d" d="M 116 2759 
L 3488 2759 
L 3488 2503 
L 116 2503 
L 116 2759 
z
M 116 1741 
L 3488 1741 
L 3488 1484 
L 116 1484 
L 116 1741 
z
" transform="scale(0.015625)"/>
       <path id="TimesNewRomanPSMT-75" d="M 2709 2863 
L 2709 1128 
Q 2709 631 2732 520 
Q 2756 409 2807 365 
Q 2859 322 2928 322 
Q 3025 322 3147 375 
L 3191 266 
L 2334 -88 
L 2194 -88 
L 2194 519 
Q 1825 119 1631 15 
Q 1438 -88 1222 -88 
Q 981 -88 804 51 
Q 628 191 559 409 
Q 491 628 491 1028 
L 491 2306 
Q 491 2509 447 2587 
Q 403 2666 317 2708 
Q 231 2750 6 2747 
L 6 2863 
L 1009 2863 
L 1009 947 
Q 1009 547 1148 422 
Q 1288 297 1484 297 
Q 1619 297 1789 381 
Q 1959 466 2194 703 
L 2194 2325 
Q 2194 2569 2105 2655 
Q 2016 2741 1734 2747 
L 1734 2863 
L 2709 2863 
z
" transform="scale(0.015625)"/>
       <path id="TimesNewRomanPSMT-76" d="M 53 2863 
L 1400 2863 
L 1400 2747 
L 1313 2747 
Q 1191 2747 1127 2687 
Q 1063 2628 1063 2528 
Q 1063 2419 1128 2269 
L 1794 688 
L 2463 2328 
Q 2534 2503 2534 2594 
Q 2534 2638 2509 2666 
Q 2475 2713 2422 2730 
Q 2369 2747 2206 2747 
L 2206 2863 
L 3141 2863 
L 3141 2747 
Q 2978 2734 2916 2681 
Q 2806 2588 2719 2369 
L 1703 -88 
L 1575 -88 
L 553 2328 
Q 484 2497 421 2570 
Q 359 2644 263 2694 
Q 209 2722 53 2747 
L 53 2863 
z
" transform="scale(0.015625)"/>
       <path id="TimesNewRomanPSMT-29" d="M 144 4313 
L 144 4444 
Q 619 4209 934 3891 
Q 1381 3434 1625 2820 
Q 1869 2206 1869 1541 
Q 1869 572 1392 -226 
Q 916 -1025 144 -1369 
L 144 -1253 
Q 528 -1038 776 -670 
Q 1025 -303 1145 264 
Q 1266 831 1266 1447 
Q 1266 2113 1163 2663 
Q 1084 3094 967 3353 
Q 850 3613 656 3853 
Q 463 4094 144 4313 
z
" transform="scale(0.015625)"/>
      </defs>
      <use xlink:href="#TimesNewRomanPSMT-44"/>
      <use xlink:href="#TimesNewRomanPSMT-69" transform="translate(72.216797 0)"/>
      <use xlink:href="#TimesNewRomanPSMT-73" transform="translate(100 0)"/>
      <use xlink:href="#TimesNewRomanPSMT-74" transform="translate(138.916016 0)"/>
      <use xlink:href="#TimesNewRomanPSMT-61" transform="translate(166.699219 0)"/>
      <use xlink:href="#TimesNewRomanPSMT-6e" transform="translate(211.083984 0)"/>
      <use xlink:href="#TimesNewRomanPSMT-63" transform="translate(261.083984 0)"/>
      <use xlink:href="#TimesNewRomanPSMT-65" transform="translate(305.46875 0)"/>
      <use xlink:href="#TimesNewRomanPSMT-20" transform="translate(349.853516 0)"/>
      <use xlink:href="#TimesNewRomanPSMT-61" transform="translate(374.853516 0)"/>
      <use xlink:href="#TimesNewRomanPSMT-6c" transform="translate(419.238281 0)"/>
      <use xlink:href="#TimesNewRomanPSMT-6f" transform="translate(447.021484 0)"/>
      <use xlink:href="#TimesNewRomanPSMT-6e" transform="translate(497.021484 0)"/>
      <use xlink:href="#TimesNewRomanPSMT-67" transform="translate(547.021484 0)"/>
      <use xlink:href="#TimesNewRomanPSMT-20" transform="translate(597.021484 0)"/>
      <use xlink:href="#TimesNewRomanPSMT-72" transform="translate(622.021484 0)"/>
      <use xlink:href="#TimesNewRomanPSMT-65" transform="translate(655.322266 0)"/>
      <use xlink:href="#TimesNewRomanPSMT-66" transform="translate(699.707031 0)"/>
      <use xlink:href="#TimesNewRomanPSMT-65" transform="translate(733.007812 0)"/>
      <use xlink:href="#TimesNewRomanPSMT-72" transform="translate(777.392578 0)"/>
      <use xlink:href="#TimesNewRomanPSMT-65" transform="translate(810.693359 0)"/>
      <use xlink:href="#TimesNewRomanPSMT-6e" transform="translate(855.078125 0)"/>
      <use xlink:href="#TimesNewRomanPSMT-63" transform="translate(905.078125 0)"/>
      <use xlink:href="#TimesNewRomanPSMT-65" transform="translate(949.462891 0)"/>
      <use xlink:href="#TimesNewRomanPSMT-20" transform="translate(993.847656 0)"/>
      <use xlink:href="#TimesNewRomanPSMT-70" transform="translate(1018.847656 0)"/>
      <use xlink:href="#TimesNewRomanPSMT-61" transform="translate(1068.847656 0)"/>
      <use xlink:href="#TimesNewRomanPSMT-74" transform="translate(1113.232422 0)"/>
      <use xlink:href="#TimesNewRomanPSMT-68" transform="translate(1141.015625 0)"/>
      <use xlink:href="#TimesNewRomanPSMT-20" transform="translate(1191.015625 0)"/>
      <use xlink:href="#TimesNewRomanPSMT-5b" transform="translate(1216.015625 0)"/>
      <use xlink:href="#TimesNewRomanPSMT-6d" transform="translate(1249.316406 0)"/>
      <use xlink:href="#TimesNewRomanPSMT-5d" transform="translate(1327.099609 0)"/>
      <use xlink:href="#TimesNewRomanPSMT-20" transform="translate(1360.400391 0)"/>
      <use xlink:href="#TimesNewRomanPSMT-20" transform="translate(1385.400391 0)"/>
      <use xlink:href="#TimesNewRomanPSMT-28" transform="translate(1410.400391 0)"/>
      <use xlink:href="#TimesNewRomanPSMT-73" transform="translate(1443.701172 0)"/>
      <use xlink:href="#TimesNewRomanPSMT-68" transform="translate(1482.617188 0)"/>
      <use xlink:href="#TimesNewRomanPSMT-61" transform="translate(1532.617188 0)"/>
      <use xlink:href="#TimesNewRomanPSMT-64" transform="translate(1577.001953 0)"/>
      <use xlink:href="#TimesNewRomanPSMT-65" transform="translate(1627.001953 0)"/>
      <use xlink:href="#TimesNewRomanPSMT-64" transform="translate(1671.386719 0)"/>
      <use xlink:href="#TimesNewRomanPSMT-20" transform="translate(1721.386719 0)"/>
      <use xlink:href="#TimesNewRomanPSMT-3d" transform="translate(1746.386719 0)"/>
      <use xlink:href="#TimesNewRomanPSMT-20" transform="translate(1802.783203 0)"/>
      <use xlink:href="#TimesNewRomanPSMT-63" transform="translate(1827.783203 0)"/>
      <use xlink:href="#TimesNewRomanPSMT-75" transform="translate(1872.167969 0)"/>
      <use xlink:href="#TimesNewRomanPSMT-72" transform="translate(1922.167969 0)"/>
      <use xlink:href="#TimesNewRomanPSMT-76" transform="translate(1955.46875 0)"/>
      <use xlink:href="#TimesNewRomanPSMT-65" transform="translate(2005.46875 0)"/>
      <use xlink:href="#TimesNewRomanPSMT-29" transform="translate(2049.853516 0)"/>
     </g>
    </g>
   </g>
   <g id="matplotlib.axis_2">
    <g id="ytick_1">
     <g id="line2d_19">
      <path d="M 30.891406 140.256 
L 388.011406 140.256 
" clip-path="url(#pedd3933926)" style="fill: none; stroke: #e4e3de; stroke-width: 0.6; stroke-linecap: square"/>
     </g>
     <g id="line2d_20">
      <defs>
       <path id="m928f30ceab" d="M 0 0 
L -3.5 0 
" style="stroke: #000000; stroke-width: 0.8"/>
      </defs>
      <g>
       <use xlink:href="#m928f30ceab" x="30.891406" y="140.256" style="stroke: #000000; stroke-width: 0.8"/>
      </g>
     </g>
     <g id="text_11">
      <!-- 0 -->
      <g transform="translate(19.391406 143.380687) scale(0.09 -0.09)">
       <use xlink:href="#TimesNewRomanPSMT-30"/>
      </g>
     </g>
    </g>
    <g id="ytick_2">
     <g id="line2d_21">
      <path d="M 30.891406 108.110111 
L 388.011406 108.110111 
" clip-path="url(#pedd3933926)" style="fill: none; stroke: #e4e3de; stroke-width: 0.6; stroke-linecap: square"/>
     </g>
     <g id="line2d_22">
      <g>
       <use xlink:href="#m928f30ceab" x="30.891406" y="108.110111" style="stroke: #000000; stroke-width: 0.8"/>
      </g>
     </g>
     <g id="text_12">
      <!-- 1 -->
      <g transform="translate(19.391406 111.234799) scale(0.09 -0.09)">
       <use xlink:href="#TimesNewRomanPSMT-31"/>
      </g>
     </g>
    </g>
    <g id="ytick_3">
     <g id="line2d_23">
      <path d="M 30.891406 75.964223 
L 388.011406 75.964223 
" clip-path="url(#pedd3933926)" style="fill: none; stroke: #e4e3de; stroke-width: 0.6; stroke-linecap: square"/>
     </g>
     <g id="line2d_24">
      <g>
       <use xlink:href="#m928f30ceab" x="30.891406" y="75.964223" style="stroke: #000000; stroke-width: 0.8"/>
      </g>
     </g>
     <g id="text_13">
      <!-- 2 -->
      <g transform="translate(19.391406 79.08891) scale(0.09 -0.09)">
       <use xlink:href="#TimesNewRomanPSMT-32"/>
      </g>
     </g>
    </g>
    <g id="ytick_4">
     <g id="line2d_25">
      <path d="M 30.891406 43.818334 
L 388.011406 43.818334 
" clip-path="url(#pedd3933926)" style="fill: none; stroke: #e4e3de; stroke-width: 0.6; stroke-linecap: square"/>
     </g>
     <g id="line2d_26">
      <g>
       <use xlink:href="#m928f30ceab" x="30.891406" y="43.818334" style="stroke: #000000; stroke-width: 0.8"/>
      </g>
     </g>
     <g id="text_14">
      <!-- 3 -->
      <g transform="translate(19.391406 46.943022) scale(0.09 -0.09)">
       <defs>
        <path id="TimesNewRomanPSMT-33" d="M 325 3431 
Q 506 3859 782 4092 
Q 1059 4325 1472 4325 
Q 1981 4325 2253 3994 
Q 2459 3747 2459 3466 
Q 2459 3003 1878 2509 
Q 2269 2356 2469 2072 
Q 2669 1788 2669 1403 
Q 2669 853 2319 450 
Q 1863 -75 997 -75 
Q 569 -75 414 31 
Q 259 138 259 259 
Q 259 350 332 419 
Q 406 488 509 488 
Q 588 488 669 463 
Q 722 447 909 348 
Q 1097 250 1169 231 
Q 1284 197 1416 197 
Q 1734 197 1970 444 
Q 2206 691 2206 1028 
Q 2206 1275 2097 1509 
Q 2016 1684 1919 1775 
Q 1784 1900 1550 2001 
Q 1316 2103 1072 2103 
L 972 2103 
L 972 2197 
Q 1219 2228 1467 2375 
Q 1716 2522 1828 2728 
Q 1941 2934 1941 3181 
Q 1941 3503 1739 3701 
Q 1538 3900 1238 3900 
Q 753 3900 428 3381 
L 325 3431 
z
" transform="scale(0.015625)"/>
       </defs>
       <use xlink:href="#TimesNewRomanPSMT-33"/>
      </g>
     </g>
    </g>
    <g id="ytick_5">
     <g id="line2d_27">
      <path d="M 30.891406 11.672446 
L 388.011406 11.672446 
" clip-path="url(#pedd3933926)" style="fill: none; stroke: #e4e3de; stroke-width: 0.6; stroke-linecap: square"/>
     </g>
     <g id="line2d_28">
      <g>
       <use xlink:href="#m928f30ceab" x="30.891406" y="11.672446" style="stroke: #000000; stroke-width: 0.8"/>
      </g>
     </g>
     <g id="text_15">
      <!-- 4 -->
      <g transform="translate(19.391406 14.797133) scale(0.09 -0.09)">
       <defs>
        <path id="TimesNewRomanPSMT-34" d="M 2978 1563 
L 2978 1119 
L 2409 1119 
L 2409 0 
L 1894 0 
L 1894 1119 
L 100 1119 
L 100 1519 
L 2066 4325 
L 2409 4325 
L 2409 1563 
L 2978 1563 
z
M 1894 1563 
L 1894 3666 
L 406 1563 
L 1894 1563 
z
" transform="scale(0.015625)"/>
       </defs>
       <use xlink:href="#TimesNewRomanPSMT-34"/>
      </g>
     </g>
    </g>
    <g id="text_16">
     <!-- |Cross-track error| [m] -->
     <g transform="translate(13.449375 113.763937) rotate(-90) scale(0.09 -0.09)">
      <defs>
       <path id="TimesNewRomanPSMT-7c" d="M 763 4444 
L 763 -1381 
L 503 -1381 
L 503 4444 
L 763 4444 
z
" transform="scale(0.015625)"/>
       <path id="TimesNewRomanPSMT-43" d="M 3853 4334 
L 3950 2894 
L 3853 2894 
Q 3659 3541 3300 3825 
Q 2941 4109 2438 4109 
Q 2016 4109 1675 3895 
Q 1334 3681 1139 3212 
Q 944 2744 944 2047 
Q 944 1472 1128 1050 
Q 1313 628 1683 403 
Q 2053 178 2528 178 
Q 2941 178 3256 354 
Q 3572 531 3950 1056 
L 4047 994 
Q 3728 428 3303 165 
Q 2878 -97 2294 -97 
Q 1241 -97 663 684 
Q 231 1266 231 2053 
Q 231 2688 515 3219 
Q 800 3750 1298 4042 
Q 1797 4334 2388 4334 
Q 2847 4334 3294 4109 
Q 3425 4041 3481 4041 
Q 3566 4041 3628 4100 
Q 3709 4184 3744 4334 
L 3853 4334 
z
" transform="scale(0.015625)"/>
       <path id="TimesNewRomanPSMT-2d" d="M 259 1672 
L 1875 1672 
L 1875 1200 
L 259 1200 
L 259 1672 
z
" transform="scale(0.015625)"/>
       <path id="TimesNewRomanPSMT-6b" d="M 1047 4444 
L 1047 1594 
L 1775 2259 
Q 2006 2472 2044 2528 
Q 2069 2566 2069 2603 
Q 2069 2666 2017 2711 
Q 1966 2756 1847 2763 
L 1847 2863 
L 3091 2863 
L 3091 2763 
Q 2834 2756 2664 2684 
Q 2494 2613 2291 2428 
L 1556 1750 
L 2291 822 
Q 2597 438 2703 334 
Q 2853 188 2966 144 
Q 3044 113 3238 113 
L 3238 0 
L 1847 0 
L 1847 113 
Q 1966 116 2008 148 
Q 2050 181 2050 241 
Q 2050 313 1925 472 
L 1047 1594 
L 1047 644 
Q 1047 366 1086 278 
Q 1125 191 1197 153 
Q 1269 116 1509 113 
L 1509 0 
L 53 0 
L 53 113 
Q 272 113 381 166 
Q 447 200 481 272 
Q 528 375 528 628 
L 528 3234 
Q 528 3731 506 3842 
Q 484 3953 434 3995 
Q 384 4038 303 4038 
Q 238 4038 106 3984 
L 53 4094 
L 903 4444 
L 1047 4444 
z
" transform="scale(0.015625)"/>
      </defs>
      <use xlink:href="#TimesNewRomanPSMT-7c"/>
      <use xlink:href="#TimesNewRomanPSMT-43" transform="translate(20.019531 0)"/>
      <use xlink:href="#TimesNewRomanPSMT-72" transform="translate(86.71875 0)"/>
      <use xlink:href="#TimesNewRomanPSMT-6f" transform="translate(120.019531 0)"/>
      <use xlink:href="#TimesNewRomanPSMT-73" transform="translate(170.019531 0)"/>
      <use xlink:href="#TimesNewRomanPSMT-73" transform="translate(208.935547 0)"/>
      <use xlink:href="#TimesNewRomanPSMT-2d" transform="translate(247.851562 0)"/>
      <use xlink:href="#TimesNewRomanPSMT-74" transform="translate(281.152344 0)"/>
      <use xlink:href="#TimesNewRomanPSMT-72" transform="translate(308.935547 0)"/>
      <use xlink:href="#TimesNewRomanPSMT-61" transform="translate(342.236328 0)"/>
      <use xlink:href="#TimesNewRomanPSMT-63" transform="translate(386.621094 0)"/>
      <use xlink:href="#TimesNewRomanPSMT-6b" transform="translate(431.005859 0)"/>
      <use xlink:href="#TimesNewRomanPSMT-20" transform="translate(481.005859 0)"/>
      <use xlink:href="#TimesNewRomanPSMT-65" transform="translate(506.005859 0)"/>
      <use xlink:href="#TimesNewRomanPSMT-72" transform="translate(550.390625 0)"/>
      <use xlink:href="#TimesNewRomanPSMT-72" transform="translate(583.691406 0)"/>
      <use xlink:href="#TimesNewRomanPSMT-6f" transform="translate(616.992188 0)"/>
      <use xlink:href="#TimesNewRomanPSMT-72" transform="translate(666.992188 0)"/>
      <use xlink:href="#TimesNewRomanPSMT-7c" transform="translate(700.292969 0)"/>
      <use xlink:href="#TimesNewRomanPSMT-20" transform="translate(720.3125 0)"/>
      <use xlink:href="#TimesNewRomanPSMT-5b" transform="translate(745.3125 0)"/>
      <use xlink:href="#TimesNewRomanPSMT-6d" transform="translate(778.613281 0)"/>
      <use xlink:href="#TimesNewRomanPSMT-5d" transform="translate(856.396484 0)"/>
     </g>
    </g>
   </g>
   <g id="line2d_29">
    <path d="M 47.124134 139.323769 
L 49.732895 138.938019 
L 52.341656 138.80622 
L 54.950248 138.867298 
L 57.55901 139.227332 
L 62.776532 140.243142 
L 67.124412 139.355952 
L 69.733173 139.110581 
L 71.472294 139.097973 
L 74.081066 139.213221 
L 76.689856 139.578533 
L 80.168012 140.251842 
L 82.776899 139.770229 
L 88.863808 139.36413 
L 91.472652 139.5297 
L 97.559643 140.165722 
L 101.037962 139.619178 
L 103.646715 139.403348 
L 107.124987 139.411986 
L 109.733758 139.64195 
L 114.081666 140.192763 
L 117.559983 139.786965 
L 118.42952 139.677306 
L 118.42952 53.728991 
L 119.299089 139.583777 
L 119.299089 105.911807 
L 120.168696 139.514345 
L 120.168696 128.597077 
L 120.168696 137.534633 
L 121.038168 139.464829 
L 121.038168 115.362962 
L 121.907849 139.444011 
L 121.907849 103.403321 
L 122.777404 139.443991 
L 122.777404 92.834617 
L 123.646984 139.469471 
L 123.646984 83.75603 
L 124.516616 139.518462 
L 124.516616 76.248815 
L 125.386114 139.589023 
L 125.386114 70.386629 
L 126.255649 66.218663 
L 127.125229 139.679024 
L 127.125229 63.77955 
L 127.994846 139.784946 
L 127.994846 63.089965 
L 128.86451 139.905979 
L 128.86451 64.148034 
L 129.734044 140.036753 
L 129.734044 66.932838 
L 130.603626 140.172027 
L 130.603626 71.415254 
L 131.473248 140.205351 
L 131.473248 77.543233 
L 132.342741 140.071099 
L 132.342741 85.246941 
L 133.212295 139.943283 
L 133.212295 94.448171 
L 134.081879 139.828222 
L 134.081879 105.056102 
L 134.951516 139.722984 
L 134.951516 116.961499 
L 135.821037 139.637375 
L 135.821037 136.314053 
L 136.690602 105.354086 
L 136.690602 121.232043 
L 137.56022 139.568052 
L 137.56022 36.491588 
L 137.56022 88.806451 
L 138.429883 139.521574 
L 141.038501 139.517178 
L 144.516944 139.802332 
L 147.995243 140.158252 
L 148.86471 140.228605 
L 153.212591 139.692526 
L 155.821438 139.561821 
L 159.299648 139.616211 
L 162.777941 139.954102 
L 165.386748 140.210501 
L 167.995384 139.88826 
L 171.473748 139.61121 
L 174.082408 139.249437 
L 174.952085 139.009698 
L 175.821671 138.632041 
L 176.691121 138.051969 
L 177.560686 137.238473 
L 178.430123 136.178294 
L 179.299729 134.882261 
L 181.038607 133.339592 
L 182.777399 129.733188 
L 187.993657 118.119367 
L 189.732426 114.887118 
L 190.601659 113.516655 
L 190.601659 112.326894 
L 191.471038 111.315281 
L 192.34032 110.484066 
L 193.209731 109.870655 
L 194.078917 109.498234 
L 194.948178 109.376649 
L 195.817618 109.511536 
L 196.686795 109.903876 
L 197.556096 110.555366 
L 198.4254 111.467843 
L 199.294699 112.632765 
L 200.163948 114.045268 
L 201.902523 117.565334 
L 203.641086 121.820352 
L 205.379791 126.563335 
L 207.118634 132.130506 
L 208.857618 138.637127 
L 209.727087 138.356981 
L 213.205319 124.397542 
L 214.944407 118.786098 
L 216.683535 116.373158 
L 218.422787 112.176292 
L 220.16183 108.876962 
L 221.031273 107.593034 
L 221.900819 106.568182 
L 222.770277 105.814368 
L 223.639671 105.333724 
L 224.50927 105.17779 
L 225.378683 105.57082 
L 226.248285 106.732813 
L 227.117935 108.807994 
L 227.987468 111.871841 
L 228.857048 115.930258 
L 229.72659 120.930655 
L 231.465664 133.320441 
L 232.335221 140.067919 
L 234.943561 116.466801 
L 236.682568 100.026411 
L 236.682568 91.881856 
L 239.290703 68.266822 
L 239.290703 61.14362 
L 241.029474 47.730364 
L 241.898791 41.890018 
L 241.898791 36.555805 
L 242.768083 31.580221 
L 243.637608 27.378178 
L 243.637608 23.875631 
L 244.506859 20.746306 
L 245.376166 18.464905 
L 245.376166 16.969031 
L 246.245493 15.892383 
L 247.1148 15.712872 
L 247.1148 16.365891 
L 247.984214 17.695084 
L 248.853616 20.101619 
L 249.723212 23.698603 
L 250.59267 28.587364 
L 251.462169 34.911806 
L 252.331806 42.778287 
L 253.201411 52.175625 
L 254.940464 74.894761 
L 254.940464 87.70813 
L 257.549101 129.465473 
L 257.549101 136.64239 
L 259.288112 107.681002 
L 259.288112 93.26095 
L 260.15752 79.110094 
L 260.15752 65.217137 
L 261.027042 51.592043 
L 261.027042 38.481919 
L 275.805886 49.558696 
L 275.805886 64.440634 
L 276.675133 79.221726 
L 276.675133 94.385873 
L 277.544402 109.194842 
L 277.544402 123.976613 
L 278.413763 137.998788 
L 279.283229 129.01679 
L 281.022141 104.821313 
L 281.891664 94.550283 
L 282.761133 85.714661 
L 283.630662 78.427888 
L 284.500211 72.781888 
L 285.36974 68.840153 
L 286.239282 66.64804 
L 287.978399 66.155422 
L 288.848025 67.157056 
L 289.717544 69.476766 
L 290.587157 72.987406 
L 291.45672 77.592229 
L 291.45672 83.162833 
L 293.195858 96.514317 
L 295.804162 119.779674 
L 297.543188 135.310843 
L 298.412562 138.044003 
L 299.281936 131.564359 
L 300.151393 125.961937 
L 301.020736 121.410432 
L 301.89009 118.057549 
L 303.628764 116.041503 
L 304.498159 115.649464 
L 305.367509 116.656799 
L 306.236827 118.893789 
L 307.106243 122.05089 
L 307.975682 125.844708 
L 309.714701 130.067297 
L 311.45364 138.771645 
L 312.323226 137.631008 
L 314.062331 130.613842 
L 314.931878 127.934275 
L 315.801518 125.91777 
L 316.67101 124.620219 
L 317.540673 124.073637 
L 318.410139 124.280404 
L 319.279792 125.210968 
L 320.149336 126.824021 
L 321.018978 129.046428 
L 322.757975 131.790367 
L 324.497221 138.430347 
L 325.366815 138.408507 
L 327.975436 127.429855 
L 329.714675 121.297977 
L 330.584165 118.893816 
L 331.453833 117.038598 
L 332.323367 115.793921 
L 333.19292 115.201125 
L 334.932176 115.286009 
L 335.801799 116.043854 
L 336.671258 117.452713 
L 337.54091 119.467882 
L 338.410548 122.03467 
L 340.149565 128.480617 
L 342.758388 139.943339 
L 343.627928 136.706179 
L 345.366997 129.5813 
L 346.236673 126.518175 
L 347.975844 123.905968 
L 348.845486 121.81599 
L 349.714981 120.306808 
L 350.584502 119.417297 
L 351.454169 119.17317 
L 352.323776 119.575146 
L 353.193238 120.602902 
L 354.062785 122.228577 
L 354.932478 124.396543 
L 355.801965 127.049376 
L 357.541232 133.556037 
L 358.410805 137.230881 
L 360.149872 139.586377 
L 361.888948 132.988658 
L 362.75856 130.420734 
L 363.628139 128.525239 
L 364.497567 127.355518 
L 365.367009 126.856436 
L 366.236467 126.946546 
L 368.844705 128.81368 
L 369.714212 130.377405 
L 370.583474 13.535802 
L 370.583474 137.329232 
L 370.583474 137.329232 
" clip-path="url(#pedd3933926)" style="fill: none; stroke: #2a78d6; stroke-width: 1.2; stroke-linecap: square"/>
   </g>
   <g id="patch_6">
    <path d="M 30.891406 140.256 
L 30.891406 7.2 
" style="fill: none; stroke: #8a8984; stroke-width: 0.8; stroke-linejoin: miter; stroke-linecap: square"/>
   </g>
   <g id="patch_7">
    <path d="M 30.891406 140.256 
L 388.011406 140.256 
" style="fill: none; stroke: #8a8984; stroke-width: 0.8; stroke-linejoin: miter; stroke-linecap: square"/>
   </g>
  </g>
 </g>
 <defs>
  <clipPath id="pedd3933926">
   <rect x="30.891406" y="7.2" width="357.12" height="133.056"/>
  </clipPath>
 </defs>
</svg>
